<?xml version="1.0" encoding="UTF-8" standalone="no"?>
<svg
   version="1.1"
   id="Layer_1"
   x="0px"
   y="0px"
   width="1160px"
   height="1160px"
   viewBox="0 0 1160 1160"
   enable-background="new 0 0 1160 1160"
   xml:space="preserve"
   sodipodi:docname="qr-code.svg"
   inkscape:version="1.1 (c68e22c387, 2021-05-23)"
   xmlns:inkscape="http://www.inkscape.org/namespaces/inkscape"
   xmlns:sodipodi="http://sodipodi.sourceforge.net/DTD/sodipodi-0.dtd"
   xmlns="http://www.w3.org/2000/svg"
   xmlns:svg="http://www.w3.org/2000/svg"><defs
   id="defs1431" /><sodipodi:namedview
   id="namedview1429"
   pagecolor="#ffffff"
   bordercolor="#666666"
   borderopacity="1.0"
   inkscape:pageshadow="2"
   inkscape:pageopacity="0.0"
   inkscape:pagecheckerboard="0"
   showgrid="false"
   inkscape:zoom="0.75258621"
   inkscape:cx="580"
   inkscape:cy="580"
   inkscape:window-width="3840"
   inkscape:window-height="2081"
   inkscape:window-x="-9"
   inkscape:window-y="-9"
   inkscape:window-maximized="1"
   inkscape:current-layer="Layer_1" />
<rect
   x="0"
   y="0"
   width="1160"
   height="1160"
   fill="rgb(255,255,255)"
   id="rect2" /><g
   transform="translate(80,80)"
   id="g1426"><g
     transform="translate(320,0) scale(0.08,0.08)"
     id="g8"><g
       transform=""
       style="fill: rgb(0, 0, 0);"
       id="g6">
<path
   d="M250,0c138.077,0,250,111.93,250,250c0,138.077-111.923,250-250,250C111.93,500,0,388.077,0,250C0,111.93,111.93,0,250,0z"
   id="path4" />
</g></g><g
     transform="translate(360,0) scale(0.08,0.08)"
     id="g14"><g
       transform=""
       style="fill: rgb(0, 0, 0);"
       id="g12">
<path
   d="M250,0c138.077,0,250,111.93,250,250c0,138.077-111.923,250-250,250C111.93,500,0,388.077,0,250C0,111.93,111.93,0,250,0z"
   id="path10" />
</g></g><g
     transform="translate(520,0) scale(0.08,0.08)"
     id="g20"><g
       transform=""
       style="fill: rgb(0, 0, 0);"
       id="g18">
<path
   d="M250,0c138.077,0,250,111.93,250,250c0,138.077-111.923,250-250,250C111.93,500,0,388.077,0,250C0,111.93,111.93,0,250,0z"
   id="path16" />
</g></g><g
     transform="translate(640,0) scale(0.08,0.08)"
     id="g26"><g
       transform=""
       style="fill: rgb(0, 0, 0);"
       id="g24">
<path
   d="M250,0c138.077,0,250,111.93,250,250c0,138.077-111.923,250-250,250C111.93,500,0,388.077,0,250C0,111.93,111.93,0,250,0z"
   id="path22" />
</g></g><g
     transform="translate(320,40) scale(0.08,0.08)"
     id="g32"><g
       transform=""
       style="fill: rgb(0, 0, 0);"
       id="g30">
<path
   d="M250,0c138.077,0,250,111.93,250,250c0,138.077-111.923,250-250,250C111.93,500,0,388.077,0,250C0,111.93,111.93,0,250,0z"
   id="path28" />
</g></g><g
     transform="translate(360,40) scale(0.08,0.08)"
     id="g38"><g
       transform=""
       style="fill: rgb(0, 0, 0);"
       id="g36">
<path
   d="M250,0c138.077,0,250,111.93,250,250c0,138.077-111.923,250-250,250C111.93,500,0,388.077,0,250C0,111.93,111.93,0,250,0z"
   id="path34" />
</g></g><g
     transform="translate(440,40) scale(0.08,0.08)"
     id="g44"><g
       transform=""
       style="fill: rgb(0, 0, 0);"
       id="g42">
<path
   d="M250,0c138.077,0,250,111.93,250,250c0,138.077-111.923,250-250,250C111.93,500,0,388.077,0,250C0,111.93,111.93,0,250,0z"
   id="path40" />
</g></g><g
     transform="translate(480,40) scale(0.08,0.08)"
     id="g50"><g
       transform=""
       style="fill: rgb(0, 0, 0);"
       id="g48">
<path
   d="M250,0c138.077,0,250,111.93,250,250c0,138.077-111.923,250-250,250C111.93,500,0,388.077,0,250C0,111.93,111.93,0,250,0z"
   id="path46" />
</g></g><g
     transform="translate(520,40) scale(0.08,0.08)"
     id="g56"><g
       transform=""
       style="fill: rgb(0, 0, 0);"
       id="g54">
<path
   d="M250,0c138.077,0,250,111.93,250,250c0,138.077-111.923,250-250,250C111.93,500,0,388.077,0,250C0,111.93,111.93,0,250,0z"
   id="path52" />
</g></g><g
     transform="translate(640,40) scale(0.08,0.08)"
     id="g62"><g
       transform=""
       style="fill: rgb(0, 0, 0);"
       id="g60">
<path
   d="M250,0c138.077,0,250,111.93,250,250c0,138.077-111.923,250-250,250C111.93,500,0,388.077,0,250C0,111.93,111.93,0,250,0z"
   id="path58" />
</g></g><g
     transform="translate(400,80) scale(0.08,0.08)"
     id="g68"><g
       transform=""
       style="fill: rgb(0, 0, 0);"
       id="g66">
<path
   d="M250,0c138.077,0,250,111.93,250,250c0,138.077-111.923,250-250,250C111.93,500,0,388.077,0,250C0,111.93,111.93,0,250,0z"
   id="path64" />
</g></g><g
     transform="translate(480,80) scale(0.08,0.08)"
     id="g74"><g
       transform=""
       style="fill: rgb(0, 0, 0);"
       id="g72">
<path
   d="M250,0c138.077,0,250,111.93,250,250c0,138.077-111.923,250-250,250C111.93,500,0,388.077,0,250C0,111.93,111.93,0,250,0z"
   id="path70" />
</g></g><g
     transform="translate(520,80) scale(0.08,0.08)"
     id="g80"><g
       transform=""
       style="fill: rgb(0, 0, 0);"
       id="g78">
<path
   d="M250,0c138.077,0,250,111.93,250,250c0,138.077-111.923,250-250,250C111.93,500,0,388.077,0,250C0,111.93,111.93,0,250,0z"
   id="path76" />
</g></g><g
     transform="translate(560,80) scale(0.08,0.08)"
     id="g86"><g
       transform=""
       style="fill: rgb(0, 0, 0);"
       id="g84">
<path
   d="M250,0c138.077,0,250,111.93,250,250c0,138.077-111.923,250-250,250C111.93,500,0,388.077,0,250C0,111.93,111.93,0,250,0z"
   id="path82" />
</g></g><g
     transform="translate(600,80) scale(0.08,0.08)"
     id="g92"><g
       transform=""
       style="fill: rgb(0, 0, 0);"
       id="g90">
<path
   d="M250,0c138.077,0,250,111.93,250,250c0,138.077-111.923,250-250,250C111.93,500,0,388.077,0,250C0,111.93,111.93,0,250,0z"
   id="path88" />
</g></g><g
     transform="translate(320,120) scale(0.08,0.08)"
     id="g98"><g
       transform=""
       style="fill: rgb(0, 0, 0);"
       id="g96">
<path
   d="M250,0c138.077,0,250,111.93,250,250c0,138.077-111.923,250-250,250C111.93,500,0,388.077,0,250C0,111.93,111.93,0,250,0z"
   id="path94" />
</g></g><g
     transform="translate(400,120) scale(0.08,0.08)"
     id="g104"><g
       transform=""
       style="fill: rgb(0, 0, 0);"
       id="g102">
<path
   d="M250,0c138.077,0,250,111.93,250,250c0,138.077-111.923,250-250,250C111.93,500,0,388.077,0,250C0,111.93,111.93,0,250,0z"
   id="path100" />
</g></g><g
     transform="translate(440,120) scale(0.08,0.08)"
     id="g110"><g
       transform=""
       style="fill: rgb(0, 0, 0);"
       id="g108">
<path
   d="M250,0c138.077,0,250,111.93,250,250c0,138.077-111.923,250-250,250C111.93,500,0,388.077,0,250C0,111.93,111.93,0,250,0z"
   id="path106" />
</g></g><g
     transform="translate(480,120) scale(0.08,0.08)"
     id="g116"><g
       transform=""
       style="fill: rgb(0, 0, 0);"
       id="g114">
<path
   d="M250,0c138.077,0,250,111.93,250,250c0,138.077-111.923,250-250,250C111.93,500,0,388.077,0,250C0,111.93,111.93,0,250,0z"
   id="path112" />
</g></g><g
     transform="translate(520,120) scale(0.08,0.08)"
     id="g122"><g
       transform=""
       style="fill: rgb(0, 0, 0);"
       id="g120">
<path
   d="M250,0c138.077,0,250,111.93,250,250c0,138.077-111.923,250-250,250C111.93,500,0,388.077,0,250C0,111.93,111.93,0,250,0z"
   id="path118" />
</g></g><g
     transform="translate(560,120) scale(0.08,0.08)"
     id="g128"><g
       transform=""
       style="fill: rgb(0, 0, 0);"
       id="g126">
<path
   d="M250,0c138.077,0,250,111.93,250,250c0,138.077-111.923,250-250,250C111.93,500,0,388.077,0,250C0,111.93,111.93,0,250,0z"
   id="path124" />
</g></g><g
     transform="translate(440,160) scale(0.08,0.08)"
     id="g134"><g
       transform=""
       style="fill: rgb(0, 0, 0);"
       id="g132">
<path
   d="M250,0c138.077,0,250,111.93,250,250c0,138.077-111.923,250-250,250C111.93,500,0,388.077,0,250C0,111.93,111.93,0,250,0z"
   id="path130" />
</g></g><g
     transform="translate(520,160) scale(0.08,0.08)"
     id="g140"><g
       transform=""
       style="fill: rgb(0, 0, 0);"
       id="g138">
<path
   d="M250,0c138.077,0,250,111.93,250,250c0,138.077-111.923,250-250,250C111.93,500,0,388.077,0,250C0,111.93,111.93,0,250,0z"
   id="path136" />
</g></g><g
     transform="translate(560,160) scale(0.08,0.08)"
     id="g146"><g
       transform=""
       style="fill: rgb(0, 0, 0);"
       id="g144">
<path
   d="M250,0c138.077,0,250,111.93,250,250c0,138.077-111.923,250-250,250C111.93,500,0,388.077,0,250C0,111.93,111.93,0,250,0z"
   id="path142" />
</g></g><g
     transform="translate(600,160) scale(0.08,0.08)"
     id="g152"><g
       transform=""
       style="fill: rgb(0, 0, 0);"
       id="g150">
<path
   d="M250,0c138.077,0,250,111.93,250,250c0,138.077-111.923,250-250,250C111.93,500,0,388.077,0,250C0,111.93,111.93,0,250,0z"
   id="path148" />
</g></g><g
     transform="translate(640,160) scale(0.08,0.08)"
     id="g158"><g
       transform=""
       style="fill: rgb(0, 0, 0);"
       id="g156">
<path
   d="M250,0c138.077,0,250,111.93,250,250c0,138.077-111.923,250-250,250C111.93,500,0,388.077,0,250C0,111.93,111.93,0,250,0z"
   id="path154" />
</g></g><g
     transform="translate(360,200) scale(0.08,0.08)"
     id="g164"><g
       transform=""
       style="fill: rgb(0, 0, 0);"
       id="g162">
<path
   d="M250,0c138.077,0,250,111.93,250,250c0,138.077-111.923,250-250,250C111.93,500,0,388.077,0,250C0,111.93,111.93,0,250,0z"
   id="path160" />
</g></g><g
     transform="translate(400,200) scale(0.08,0.08)"
     id="g170"><g
       transform=""
       style="fill: rgb(0, 0, 0);"
       id="g168">
<path
   d="M250,0c138.077,0,250,111.93,250,250c0,138.077-111.923,250-250,250C111.93,500,0,388.077,0,250C0,111.93,111.93,0,250,0z"
   id="path166" />
</g></g><g
     transform="translate(440,200) scale(0.08,0.08)"
     id="g176"><g
       transform=""
       style="fill: rgb(0, 0, 0);"
       id="g174">
<path
   d="M250,0c138.077,0,250,111.93,250,250c0,138.077-111.923,250-250,250C111.93,500,0,388.077,0,250C0,111.93,111.93,0,250,0z"
   id="path172" />
</g></g><g
     transform="translate(520,200) scale(0.08,0.08)"
     id="g182"><g
       transform=""
       style="fill: rgb(0, 0, 0);"
       id="g180">
<path
   d="M250,0c138.077,0,250,111.93,250,250c0,138.077-111.923,250-250,250C111.93,500,0,388.077,0,250C0,111.93,111.93,0,250,0z"
   id="path178" />
</g></g><g
     transform="translate(640,200) scale(0.08,0.08)"
     id="g188"><g
       transform=""
       style="fill: rgb(0, 0, 0);"
       id="g186">
<path
   d="M250,0c138.077,0,250,111.93,250,250c0,138.077-111.923,250-250,250C111.93,500,0,388.077,0,250C0,111.93,111.93,0,250,0z"
   id="path184" />
</g></g><g
     transform="translate(320,240) scale(0.08,0.08)"
     id="g194"><g
       transform=""
       style="fill: rgb(0, 0, 0);"
       id="g192">
<path
   d="M250,0c138.077,0,250,111.93,250,250c0,138.077-111.923,250-250,250C111.93,500,0,388.077,0,250C0,111.93,111.93,0,250,0z"
   id="path190" />
</g></g><g
     transform="translate(400,240) scale(0.08,0.08)"
     id="g200"><g
       transform=""
       style="fill: rgb(0, 0, 0);"
       id="g198">
<path
   d="M250,0c138.077,0,250,111.93,250,250c0,138.077-111.923,250-250,250C111.93,500,0,388.077,0,250C0,111.93,111.93,0,250,0z"
   id="path196" />
</g></g><g
     transform="translate(480,240) scale(0.08,0.08)"
     id="g206"><g
       transform=""
       style="fill: rgb(0, 0, 0);"
       id="g204">
<path
   d="M250,0c138.077,0,250,111.93,250,250c0,138.077-111.923,250-250,250C111.93,500,0,388.077,0,250C0,111.93,111.93,0,250,0z"
   id="path202" />
</g></g><g
     transform="translate(560,240) scale(0.08,0.08)"
     id="g212"><g
       transform=""
       style="fill: rgb(0, 0, 0);"
       id="g210">
<path
   d="M250,0c138.077,0,250,111.93,250,250c0,138.077-111.923,250-250,250C111.93,500,0,388.077,0,250C0,111.93,111.93,0,250,0z"
   id="path208" />
</g></g><g
     transform="translate(640,240) scale(0.08,0.08)"
     id="g218"><g
       transform=""
       style="fill: rgb(0, 0, 0);"
       id="g216">
<path
   d="M250,0c138.077,0,250,111.93,250,250c0,138.077-111.923,250-250,250C111.93,500,0,388.077,0,250C0,111.93,111.93,0,250,0z"
   id="path214" />
</g></g><g
     transform="translate(320,280) scale(0.08,0.08)"
     id="g224"><g
       transform=""
       style="fill: rgb(0, 0, 0);"
       id="g222">
<path
   d="M250,0c138.077,0,250,111.93,250,250c0,138.077-111.923,250-250,250C111.93,500,0,388.077,0,250C0,111.93,111.93,0,250,0z"
   id="path220" />
</g></g><g
     transform="translate(400,280) scale(0.08,0.08)"
     id="g230"><g
       transform=""
       style="fill: rgb(0, 0, 0);"
       id="g228">
<path
   d="M250,0c138.077,0,250,111.93,250,250c0,138.077-111.923,250-250,250C111.93,500,0,388.077,0,250C0,111.93,111.93,0,250,0z"
   id="path226" />
</g></g><g
     transform="translate(440,280) scale(0.08,0.08)"
     id="g236"><g
       transform=""
       style="fill: rgb(0, 0, 0);"
       id="g234">
<path
   d="M250,0c138.077,0,250,111.93,250,250c0,138.077-111.923,250-250,250C111.93,500,0,388.077,0,250C0,111.93,111.93,0,250,0z"
   id="path232" />
</g></g><g
     transform="translate(480,280) scale(0.08,0.08)"
     id="g242"><g
       transform=""
       style="fill: rgb(0, 0, 0);"
       id="g240">
<path
   d="M250,0c138.077,0,250,111.93,250,250c0,138.077-111.923,250-250,250C111.93,500,0,388.077,0,250C0,111.93,111.93,0,250,0z"
   id="path238" />
</g></g><g
     transform="translate(600,280) scale(0.08,0.08)"
     id="g248"><g
       transform=""
       style="fill: rgb(0, 0, 0);"
       id="g246">
<path
   d="M250,0c138.077,0,250,111.93,250,250c0,138.077-111.923,250-250,250C111.93,500,0,388.077,0,250C0,111.93,111.93,0,250,0z"
   id="path244" />
</g></g><g
     transform="translate(0,320) scale(0.08,0.08)"
     id="g254"><g
       transform=""
       style="fill: rgb(0, 0, 0);"
       id="g252">
<path
   d="M250,0c138.077,0,250,111.93,250,250c0,138.077-111.923,250-250,250C111.93,500,0,388.077,0,250C0,111.93,111.93,0,250,0z"
   id="path250" />
</g></g><g
     transform="translate(80,320) scale(0.08,0.08)"
     id="g260"><g
       transform=""
       style="fill: rgb(0, 0, 0);"
       id="g258">
<path
   d="M250,0c138.077,0,250,111.93,250,250c0,138.077-111.923,250-250,250C111.93,500,0,388.077,0,250C0,111.93,111.93,0,250,0z"
   id="path256" />
</g></g><g
     transform="translate(120,320) scale(0.08,0.08)"
     id="g266"><g
       transform=""
       style="fill: rgb(0, 0, 0);"
       id="g264">
<path
   d="M250,0c138.077,0,250,111.93,250,250c0,138.077-111.923,250-250,250C111.93,500,0,388.077,0,250C0,111.93,111.93,0,250,0z"
   id="path262" />
</g></g><g
     transform="translate(200,320) scale(0.08,0.08)"
     id="g272"><g
       transform=""
       style="fill: rgb(0, 0, 0);"
       id="g270">
<path
   d="M250,0c138.077,0,250,111.93,250,250c0,138.077-111.923,250-250,250C111.93,500,0,388.077,0,250C0,111.93,111.93,0,250,0z"
   id="path268" />
</g></g><g
     transform="translate(240,320) scale(0.08,0.08)"
     id="g278"><g
       transform=""
       style="fill: rgb(0, 0, 0);"
       id="g276">
<path
   d="M250,0c138.077,0,250,111.93,250,250c0,138.077-111.923,250-250,250C111.93,500,0,388.077,0,250C0,111.93,111.93,0,250,0z"
   id="path274" />
</g></g><g
     transform="translate(280,320) scale(0.08,0.08)"
     id="g284"><g
       transform=""
       style="fill: rgb(0, 0, 0);"
       id="g282">
<path
   d="M250,0c138.077,0,250,111.93,250,250c0,138.077-111.923,250-250,250C111.93,500,0,388.077,0,250C0,111.93,111.93,0,250,0z"
   id="path280" />
</g></g><g
     transform="translate(400,320) scale(0.08,0.08)"
     id="g290"><g
       transform=""
       style="fill: rgb(0, 0, 0);"
       id="g288">
<path
   d="M250,0c138.077,0,250,111.93,250,250c0,138.077-111.923,250-250,250C111.93,500,0,388.077,0,250C0,111.93,111.93,0,250,0z"
   id="path286" />
</g></g><g
     transform="translate(440,320) scale(0.08,0.08)"
     id="g296"><g
       transform=""
       style="fill: rgb(0, 0, 0);"
       id="g294">
<path
   d="M250,0c138.077,0,250,111.93,250,250c0,138.077-111.923,250-250,250C111.93,500,0,388.077,0,250C0,111.93,111.93,0,250,0z"
   id="path292" />
</g></g><g
     transform="translate(560,320) scale(0.08,0.08)"
     id="g302"><g
       transform=""
       style="fill: rgb(0, 0, 0);"
       id="g300">
<path
   d="M250,0c138.077,0,250,111.93,250,250c0,138.077-111.923,250-250,250C111.93,500,0,388.077,0,250C0,111.93,111.93,0,250,0z"
   id="path298" />
</g></g><g
     transform="translate(720,320) scale(0.08,0.08)"
     id="g308"><g
       transform=""
       style="fill: rgb(0, 0, 0);"
       id="g306">
<path
   d="M250,0c138.077,0,250,111.93,250,250c0,138.077-111.923,250-250,250C111.93,500,0,388.077,0,250C0,111.93,111.93,0,250,0z"
   id="path304" />
</g></g><g
     transform="translate(840,320) scale(0.08,0.08)"
     id="g314"><g
       transform=""
       style="fill: rgb(0, 0, 0);"
       id="g312">
<path
   d="M250,0c138.077,0,250,111.93,250,250c0,138.077-111.923,250-250,250C111.93,500,0,388.077,0,250C0,111.93,111.93,0,250,0z"
   id="path310" />
</g></g><g
     transform="translate(920,320) scale(0.08,0.08)"
     id="g320"><g
       transform=""
       style="fill: rgb(0, 0, 0);"
       id="g318">
<path
   d="M250,0c138.077,0,250,111.93,250,250c0,138.077-111.923,250-250,250C111.93,500,0,388.077,0,250C0,111.93,111.93,0,250,0z"
   id="path316" />
</g></g><g
     transform="translate(960,320) scale(0.08,0.08)"
     id="g326"><g
       transform=""
       style="fill: rgb(0, 0, 0);"
       id="g324">
<path
   d="M250,0c138.077,0,250,111.93,250,250c0,138.077-111.923,250-250,250C111.93,500,0,388.077,0,250C0,111.93,111.93,0,250,0z"
   id="path322" />
</g></g><g
     transform="translate(0,360) scale(0.08,0.08)"
     id="g332"><g
       transform=""
       style="fill: rgb(0, 0, 0);"
       id="g330">
<path
   d="M250,0c138.077,0,250,111.93,250,250c0,138.077-111.923,250-250,250C111.93,500,0,388.077,0,250C0,111.93,111.93,0,250,0z"
   id="path328" />
</g></g><g
     transform="translate(40,360) scale(0.08,0.08)"
     id="g338"><g
       transform=""
       style="fill: rgb(0, 0, 0);"
       id="g336">
<path
   d="M250,0c138.077,0,250,111.93,250,250c0,138.077-111.923,250-250,250C111.93,500,0,388.077,0,250C0,111.93,111.93,0,250,0z"
   id="path334" />
</g></g><g
     transform="translate(160,360) scale(0.08,0.08)"
     id="g344"><g
       transform=""
       style="fill: rgb(0, 0, 0);"
       id="g342">
<path
   d="M250,0c138.077,0,250,111.93,250,250c0,138.077-111.923,250-250,250C111.93,500,0,388.077,0,250C0,111.93,111.93,0,250,0z"
   id="path340" />
</g></g><g
     transform="translate(200,360) scale(0.08,0.08)"
     id="g350"><g
       transform=""
       style="fill: rgb(0, 0, 0);"
       id="g348">
<path
   d="M250,0c138.077,0,250,111.93,250,250c0,138.077-111.923,250-250,250C111.93,500,0,388.077,0,250C0,111.93,111.93,0,250,0z"
   id="path346" />
</g></g><g
     transform="translate(280,360) scale(0.08,0.08)"
     id="g356"><g
       transform=""
       style="fill: rgb(0, 0, 0);"
       id="g354">
<path
   d="M250,0c138.077,0,250,111.93,250,250c0,138.077-111.923,250-250,250C111.93,500,0,388.077,0,250C0,111.93,111.93,0,250,0z"
   id="path352" />
</g></g><g
     transform="translate(320,360) scale(0.08,0.08)"
     id="g362"><g
       transform=""
       style="fill: rgb(0, 0, 0);"
       id="g360">
<path
   d="M250,0c138.077,0,250,111.93,250,250c0,138.077-111.923,250-250,250C111.93,500,0,388.077,0,250C0,111.93,111.93,0,250,0z"
   id="path358" />
</g></g><g
     transform="translate(400,360) scale(0.08,0.08)"
     id="g368"><g
       transform=""
       style="fill: rgb(0, 0, 0);"
       id="g366">
<path
   d="M250,0c138.077,0,250,111.93,250,250c0,138.077-111.923,250-250,250C111.93,500,0,388.077,0,250C0,111.93,111.93,0,250,0z"
   id="path364" />
</g></g><g
     transform="translate(480,360) scale(0.08,0.08)"
     id="g374"><g
       transform=""
       style="fill: rgb(0, 0, 0);"
       id="g372">
<path
   d="M250,0c138.077,0,250,111.93,250,250c0,138.077-111.923,250-250,250C111.93,500,0,388.077,0,250C0,111.93,111.93,0,250,0z"
   id="path370" />
</g></g><g
     transform="translate(520,360) scale(0.08,0.08)"
     id="g380"><g
       transform=""
       style="fill: rgb(0, 0, 0);"
       id="g378">
<path
   d="M250,0c138.077,0,250,111.93,250,250c0,138.077-111.923,250-250,250C111.93,500,0,388.077,0,250C0,111.93,111.93,0,250,0z"
   id="path376" />
</g></g><g
     transform="translate(640,360) scale(0.08,0.08)"
     id="g386"><g
       transform=""
       style="fill: rgb(0, 0, 0);"
       id="g384">
<path
   d="M250,0c138.077,0,250,111.93,250,250c0,138.077-111.923,250-250,250C111.93,500,0,388.077,0,250C0,111.93,111.93,0,250,0z"
   id="path382" />
</g></g><g
     transform="translate(680,360) scale(0.08,0.08)"
     id="g392"><g
       transform=""
       style="fill: rgb(0, 0, 0);"
       id="g390">
<path
   d="M250,0c138.077,0,250,111.93,250,250c0,138.077-111.923,250-250,250C111.93,500,0,388.077,0,250C0,111.93,111.93,0,250,0z"
   id="path388" />
</g></g><g
     transform="translate(720,360) scale(0.08,0.08)"
     id="g398"><g
       transform=""
       style="fill: rgb(0, 0, 0);"
       id="g396">
<path
   d="M250,0c138.077,0,250,111.93,250,250c0,138.077-111.923,250-250,250C111.93,500,0,388.077,0,250C0,111.93,111.93,0,250,0z"
   id="path394" />
</g></g><g
     transform="translate(800,360) scale(0.08,0.08)"
     id="g404"><g
       transform=""
       style="fill: rgb(0, 0, 0);"
       id="g402">
<path
   d="M250,0c138.077,0,250,111.93,250,250c0,138.077-111.923,250-250,250C111.93,500,0,388.077,0,250C0,111.93,111.93,0,250,0z"
   id="path400" />
</g></g><g
     transform="translate(920,360) scale(0.08,0.08)"
     id="g410"><g
       transform=""
       style="fill: rgb(0, 0, 0);"
       id="g408">
<path
   d="M250,0c138.077,0,250,111.93,250,250c0,138.077-111.923,250-250,250C111.93,500,0,388.077,0,250C0,111.93,111.93,0,250,0z"
   id="path406" />
</g></g><g
     transform="translate(40,400) scale(0.08,0.08)"
     id="g416"><g
       transform=""
       style="fill: rgb(0, 0, 0);"
       id="g414">
<path
   d="M250,0c138.077,0,250,111.93,250,250c0,138.077-111.923,250-250,250C111.93,500,0,388.077,0,250C0,111.93,111.93,0,250,0z"
   id="path412" />
</g></g><g
     transform="translate(120,400) scale(0.08,0.08)"
     id="g422"><g
       transform=""
       style="fill: rgb(0, 0, 0);"
       id="g420">
<path
   d="M250,0c138.077,0,250,111.93,250,250c0,138.077-111.923,250-250,250C111.93,500,0,388.077,0,250C0,111.93,111.93,0,250,0z"
   id="path418" />
</g></g><g
     transform="translate(200,400) scale(0.08,0.08)"
     id="g428"><g
       transform=""
       style="fill: rgb(0, 0, 0);"
       id="g426">
<path
   d="M250,0c138.077,0,250,111.93,250,250c0,138.077-111.923,250-250,250C111.93,500,0,388.077,0,250C0,111.93,111.93,0,250,0z"
   id="path424" />
</g></g><g
     transform="translate(240,400) scale(0.08,0.08)"
     id="g434"><g
       transform=""
       style="fill: rgb(0, 0, 0);"
       id="g432">
<path
   d="M250,0c138.077,0,250,111.93,250,250c0,138.077-111.923,250-250,250C111.93,500,0,388.077,0,250C0,111.93,111.93,0,250,0z"
   id="path430" />
</g></g><g
     transform="translate(320,400) scale(0.08,0.08)"
     id="g440"><g
       transform=""
       style="fill: rgb(0, 0, 0);"
       id="g438">
<path
   d="M250,0c138.077,0,250,111.93,250,250c0,138.077-111.923,250-250,250C111.93,500,0,388.077,0,250C0,111.93,111.93,0,250,0z"
   id="path436" />
</g></g><g
     transform="translate(360,400) scale(0.08,0.08)"
     id="g446"><g
       transform=""
       style="fill: rgb(0, 0, 0);"
       id="g444">
<path
   d="M250,0c138.077,0,250,111.93,250,250c0,138.077-111.923,250-250,250C111.93,500,0,388.077,0,250C0,111.93,111.93,0,250,0z"
   id="path442" />
</g></g><g
     transform="translate(440,400) scale(0.08,0.08)"
     id="g452"><g
       transform=""
       style="fill: rgb(0, 0, 0);"
       id="g450">
<path
   d="M250,0c138.077,0,250,111.93,250,250c0,138.077-111.923,250-250,250C111.93,500,0,388.077,0,250C0,111.93,111.93,0,250,0z"
   id="path448" />
</g></g><g
     transform="translate(520,400) scale(0.08,0.08)"
     id="g458"><g
       transform=""
       style="fill: rgb(0, 0, 0);"
       id="g456">
<path
   d="M250,0c138.077,0,250,111.93,250,250c0,138.077-111.923,250-250,250C111.93,500,0,388.077,0,250C0,111.93,111.93,0,250,0z"
   id="path454" />
</g></g><g
     transform="translate(560,400) scale(0.08,0.08)"
     id="g464"><g
       transform=""
       style="fill: rgb(0, 0, 0);"
       id="g462">
<path
   d="M250,0c138.077,0,250,111.93,250,250c0,138.077-111.923,250-250,250C111.93,500,0,388.077,0,250C0,111.93,111.93,0,250,0z"
   id="path460" />
</g></g><g
     transform="translate(720,400) scale(0.08,0.08)"
     id="g470"><g
       transform=""
       style="fill: rgb(0, 0, 0);"
       id="g468">
<path
   d="M250,0c138.077,0,250,111.93,250,250c0,138.077-111.923,250-250,250C111.93,500,0,388.077,0,250C0,111.93,111.93,0,250,0z"
   id="path466" />
</g></g><g
     transform="translate(800,400) scale(0.08,0.08)"
     id="g476"><g
       transform=""
       style="fill: rgb(0, 0, 0);"
       id="g474">
<path
   d="M250,0c138.077,0,250,111.93,250,250c0,138.077-111.923,250-250,250C111.93,500,0,388.077,0,250C0,111.93,111.93,0,250,0z"
   id="path472" />
</g></g><g
     transform="translate(0,440) scale(0.08,0.08)"
     id="g482"><g
       transform=""
       style="fill: rgb(0, 0, 0);"
       id="g480">
<path
   d="M250,0c138.077,0,250,111.93,250,250c0,138.077-111.923,250-250,250C111.93,500,0,388.077,0,250C0,111.93,111.93,0,250,0z"
   id="path478" />
</g></g><g
     transform="translate(200,440) scale(0.08,0.08)"
     id="g488"><g
       transform=""
       style="fill: rgb(0, 0, 0);"
       id="g486">
<path
   d="M250,0c138.077,0,250,111.93,250,250c0,138.077-111.923,250-250,250C111.93,500,0,388.077,0,250C0,111.93,111.93,0,250,0z"
   id="path484" />
</g></g><g
     transform="translate(320,440) scale(0.08,0.08)"
     id="g494"><g
       transform=""
       style="fill: rgb(0, 0, 0);"
       id="g492">
<path
   d="M250,0c138.077,0,250,111.93,250,250c0,138.077-111.923,250-250,250C111.93,500,0,388.077,0,250C0,111.93,111.93,0,250,0z"
   id="path490" />
</g></g><g
     transform="translate(400,440) scale(0.08,0.08)"
     id="g500"><g
       transform=""
       style="fill: rgb(0, 0, 0);"
       id="g498">
<path
   d="M250,0c138.077,0,250,111.93,250,250c0,138.077-111.923,250-250,250C111.93,500,0,388.077,0,250C0,111.93,111.93,0,250,0z"
   id="path496" />
</g></g><g
     transform="translate(440,440) scale(0.08,0.08)"
     id="g506"><g
       transform=""
       style="fill: rgb(0, 0, 0);"
       id="g504">
<path
   d="M250,0c138.077,0,250,111.93,250,250c0,138.077-111.923,250-250,250C111.93,500,0,388.077,0,250C0,111.93,111.93,0,250,0z"
   id="path502" />
</g></g><g
     transform="translate(520,440) scale(0.08,0.08)"
     id="g512"><g
       transform=""
       style="fill: rgb(0, 0, 0);"
       id="g510">
<path
   d="M250,0c138.077,0,250,111.93,250,250c0,138.077-111.923,250-250,250C111.93,500,0,388.077,0,250C0,111.93,111.93,0,250,0z"
   id="path508" />
</g></g><g
     transform="translate(600,440) scale(0.08,0.08)"
     id="g518"><g
       transform=""
       style="fill: rgb(0, 0, 0);"
       id="g516">
<path
   d="M250,0c138.077,0,250,111.93,250,250c0,138.077-111.923,250-250,250C111.93,500,0,388.077,0,250C0,111.93,111.93,0,250,0z"
   id="path514" />
</g></g><g
     transform="translate(680,440) scale(0.08,0.08)"
     id="g524"><g
       transform=""
       style="fill: rgb(0, 0, 0);"
       id="g522">
<path
   d="M250,0c138.077,0,250,111.93,250,250c0,138.077-111.923,250-250,250C111.93,500,0,388.077,0,250C0,111.93,111.93,0,250,0z"
   id="path520" />
</g></g><g
     transform="translate(720,440) scale(0.08,0.08)"
     id="g530"><g
       transform=""
       style="fill: rgb(0, 0, 0);"
       id="g528">
<path
   d="M250,0c138.077,0,250,111.93,250,250c0,138.077-111.923,250-250,250C111.93,500,0,388.077,0,250C0,111.93,111.93,0,250,0z"
   id="path526" />
</g></g><g
     transform="translate(760,440) scale(0.08,0.08)"
     id="g536"><g
       transform=""
       style="fill: rgb(0, 0, 0);"
       id="g534">
<path
   d="M250,0c138.077,0,250,111.93,250,250c0,138.077-111.923,250-250,250C111.93,500,0,388.077,0,250C0,111.93,111.93,0,250,0z"
   id="path532" />
</g></g><g
     transform="translate(840,440) scale(0.08,0.08)"
     id="g542"><g
       transform=""
       style="fill: rgb(0, 0, 0);"
       id="g540">
<path
   d="M250,0c138.077,0,250,111.93,250,250c0,138.077-111.923,250-250,250C111.93,500,0,388.077,0,250C0,111.93,111.93,0,250,0z"
   id="path538" />
</g></g><g
     transform="translate(880,440) scale(0.08,0.08)"
     id="g548"><g
       transform=""
       style="fill: rgb(0, 0, 0);"
       id="g546">
<path
   d="M250,0c138.077,0,250,111.93,250,250c0,138.077-111.923,250-250,250C111.93,500,0,388.077,0,250C0,111.93,111.93,0,250,0z"
   id="path544" />
</g></g><g
     transform="translate(0,480) scale(0.08,0.08)"
     id="g554"><g
       transform=""
       style="fill: rgb(0, 0, 0);"
       id="g552">
<path
   d="M250,0c138.077,0,250,111.93,250,250c0,138.077-111.923,250-250,250C111.93,500,0,388.077,0,250C0,111.93,111.93,0,250,0z"
   id="path550" />
</g></g><g
     transform="translate(120,480) scale(0.08,0.08)"
     id="g560"><g
       transform=""
       style="fill: rgb(0, 0, 0);"
       id="g558">
<path
   d="M250,0c138.077,0,250,111.93,250,250c0,138.077-111.923,250-250,250C111.93,500,0,388.077,0,250C0,111.93,111.93,0,250,0z"
   id="path556" />
</g></g><g
     transform="translate(160,480) scale(0.08,0.08)"
     id="g566"><g
       transform=""
       style="fill: rgb(0, 0, 0);"
       id="g564">
<path
   d="M250,0c138.077,0,250,111.93,250,250c0,138.077-111.923,250-250,250C111.93,500,0,388.077,0,250C0,111.93,111.93,0,250,0z"
   id="path562" />
</g></g><g
     transform="translate(240,480) scale(0.08,0.08)"
     id="g572"><g
       transform=""
       style="fill: rgb(0, 0, 0);"
       id="g570">
<path
   d="M250,0c138.077,0,250,111.93,250,250c0,138.077-111.923,250-250,250C111.93,500,0,388.077,0,250C0,111.93,111.93,0,250,0z"
   id="path568" />
</g></g><g
     transform="translate(280,480) scale(0.08,0.08)"
     id="g578"><g
       transform=""
       style="fill: rgb(0, 0, 0);"
       id="g576">
<path
   d="M250,0c138.077,0,250,111.93,250,250c0,138.077-111.923,250-250,250C111.93,500,0,388.077,0,250C0,111.93,111.93,0,250,0z"
   id="path574" />
</g></g><g
     transform="translate(360,480) scale(0.08,0.08)"
     id="g584"><g
       transform=""
       style="fill: rgb(0, 0, 0);"
       id="g582">
<path
   d="M250,0c138.077,0,250,111.93,250,250c0,138.077-111.923,250-250,250C111.93,500,0,388.077,0,250C0,111.93,111.93,0,250,0z"
   id="path580" />
</g></g><g
     transform="translate(480,480) scale(0.08,0.08)"
     id="g590"><g
       transform=""
       style="fill: rgb(0, 0, 0);"
       id="g588">
<path
   d="M250,0c138.077,0,250,111.93,250,250c0,138.077-111.923,250-250,250C111.93,500,0,388.077,0,250C0,111.93,111.93,0,250,0z"
   id="path586" />
</g></g><g
     transform="translate(520,480) scale(0.08,0.08)"
     id="g596"><g
       transform=""
       style="fill: rgb(0, 0, 0);"
       id="g594">
<path
   d="M250,0c138.077,0,250,111.93,250,250c0,138.077-111.923,250-250,250C111.93,500,0,388.077,0,250C0,111.93,111.93,0,250,0z"
   id="path592" />
</g></g><g
     transform="translate(600,480) scale(0.08,0.08)"
     id="g602"><g
       transform=""
       style="fill: rgb(0, 0, 0);"
       id="g600">
<path
   d="M250,0c138.077,0,250,111.93,250,250c0,138.077-111.923,250-250,250C111.93,500,0,388.077,0,250C0,111.93,111.93,0,250,0z"
   id="path598" />
</g></g><g
     transform="translate(640,480) scale(0.08,0.08)"
     id="g608"><g
       transform=""
       style="fill: rgb(0, 0, 0);"
       id="g606">
<path
   d="M250,0c138.077,0,250,111.93,250,250c0,138.077-111.923,250-250,250C111.93,500,0,388.077,0,250C0,111.93,111.93,0,250,0z"
   id="path604" />
</g></g><g
     transform="translate(760,480) scale(0.08,0.08)"
     id="g614"><g
       transform=""
       style="fill: rgb(0, 0, 0);"
       id="g612">
<path
   d="M250,0c138.077,0,250,111.93,250,250c0,138.077-111.923,250-250,250C111.93,500,0,388.077,0,250C0,111.93,111.93,0,250,0z"
   id="path610" />
</g></g><g
     transform="translate(800,480) scale(0.08,0.08)"
     id="g620"><g
       transform=""
       style="fill: rgb(0, 0, 0);"
       id="g618">
<path
   d="M250,0c138.077,0,250,111.93,250,250c0,138.077-111.923,250-250,250C111.93,500,0,388.077,0,250C0,111.93,111.93,0,250,0z"
   id="path616" />
</g></g><g
     transform="translate(880,480) scale(0.08,0.08)"
     id="g626"><g
       transform=""
       style="fill: rgb(0, 0, 0);"
       id="g624">
<path
   d="M250,0c138.077,0,250,111.93,250,250c0,138.077-111.923,250-250,250C111.93,500,0,388.077,0,250C0,111.93,111.93,0,250,0z"
   id="path622" />
</g></g><g
     transform="translate(920,480) scale(0.08,0.08)"
     id="g632"><g
       transform=""
       style="fill: rgb(0, 0, 0);"
       id="g630">
<path
   d="M250,0c138.077,0,250,111.93,250,250c0,138.077-111.923,250-250,250C111.93,500,0,388.077,0,250C0,111.93,111.93,0,250,0z"
   id="path628" />
</g></g><g
     transform="translate(960,480) scale(0.08,0.08)"
     id="g638"><g
       transform=""
       style="fill: rgb(0, 0, 0);"
       id="g636">
<path
   d="M250,0c138.077,0,250,111.93,250,250c0,138.077-111.923,250-250,250C111.93,500,0,388.077,0,250C0,111.93,111.93,0,250,0z"
   id="path634" />
</g></g><g
     transform="translate(40,520) scale(0.08,0.08)"
     id="g644"><g
       transform=""
       style="fill: rgb(0, 0, 0);"
       id="g642">
<path
   d="M250,0c138.077,0,250,111.93,250,250c0,138.077-111.923,250-250,250C111.93,500,0,388.077,0,250C0,111.93,111.93,0,250,0z"
   id="path640" />
</g></g><g
     transform="translate(120,520) scale(0.08,0.08)"
     id="g650"><g
       transform=""
       style="fill: rgb(0, 0, 0);"
       id="g648">
<path
   d="M250,0c138.077,0,250,111.93,250,250c0,138.077-111.923,250-250,250C111.93,500,0,388.077,0,250C0,111.93,111.93,0,250,0z"
   id="path646" />
</g></g><g
     transform="translate(200,520) scale(0.08,0.08)"
     id="g656"><g
       transform=""
       style="fill: rgb(0, 0, 0);"
       id="g654">
<path
   d="M250,0c138.077,0,250,111.93,250,250c0,138.077-111.923,250-250,250C111.93,500,0,388.077,0,250C0,111.93,111.93,0,250,0z"
   id="path652" />
</g></g><g
     transform="translate(280,520) scale(0.08,0.08)"
     id="g662"><g
       transform=""
       style="fill: rgb(0, 0, 0);"
       id="g660">
<path
   d="M250,0c138.077,0,250,111.93,250,250c0,138.077-111.923,250-250,250C111.93,500,0,388.077,0,250C0,111.93,111.93,0,250,0z"
   id="path658" />
</g></g><g
     transform="translate(360,520) scale(0.08,0.08)"
     id="g668"><g
       transform=""
       style="fill: rgb(0, 0, 0);"
       id="g666">
<path
   d="M250,0c138.077,0,250,111.93,250,250c0,138.077-111.923,250-250,250C111.93,500,0,388.077,0,250C0,111.93,111.93,0,250,0z"
   id="path664" />
</g></g><g
     transform="translate(400,520) scale(0.08,0.08)"
     id="g674"><g
       transform=""
       style="fill: rgb(0, 0, 0);"
       id="g672">
<path
   d="M250,0c138.077,0,250,111.93,250,250c0,138.077-111.923,250-250,250C111.93,500,0,388.077,0,250C0,111.93,111.93,0,250,0z"
   id="path670" />
</g></g><g
     transform="translate(440,520) scale(0.08,0.08)"
     id="g680"><g
       transform=""
       style="fill: rgb(0, 0, 0);"
       id="g678">
<path
   d="M250,0c138.077,0,250,111.93,250,250c0,138.077-111.923,250-250,250C111.93,500,0,388.077,0,250C0,111.93,111.93,0,250,0z"
   id="path676" />
</g></g><g
     transform="translate(480,520) scale(0.08,0.08)"
     id="g686"><g
       transform=""
       style="fill: rgb(0, 0, 0);"
       id="g684">
<path
   d="M250,0c138.077,0,250,111.93,250,250c0,138.077-111.923,250-250,250C111.93,500,0,388.077,0,250C0,111.93,111.93,0,250,0z"
   id="path682" />
</g></g><g
     transform="translate(520,520) scale(0.08,0.08)"
     id="g692"><g
       transform=""
       style="fill: rgb(0, 0, 0);"
       id="g690">
<path
   d="M250,0c138.077,0,250,111.93,250,250c0,138.077-111.923,250-250,250C111.93,500,0,388.077,0,250C0,111.93,111.93,0,250,0z"
   id="path688" />
</g></g><g
     transform="translate(560,520) scale(0.08,0.08)"
     id="g698"><g
       transform=""
       style="fill: rgb(0, 0, 0);"
       id="g696">
<path
   d="M250,0c138.077,0,250,111.93,250,250c0,138.077-111.923,250-250,250C111.93,500,0,388.077,0,250C0,111.93,111.93,0,250,0z"
   id="path694" />
</g></g><g
     transform="translate(600,520) scale(0.08,0.08)"
     id="g704"><g
       transform=""
       style="fill: rgb(0, 0, 0);"
       id="g702">
<path
   d="M250,0c138.077,0,250,111.93,250,250c0,138.077-111.923,250-250,250C111.93,500,0,388.077,0,250C0,111.93,111.93,0,250,0z"
   id="path700" />
</g></g><g
     transform="translate(640,520) scale(0.08,0.08)"
     id="g710"><g
       transform=""
       style="fill: rgb(0, 0, 0);"
       id="g708">
<path
   d="M250,0c138.077,0,250,111.93,250,250c0,138.077-111.923,250-250,250C111.93,500,0,388.077,0,250C0,111.93,111.93,0,250,0z"
   id="path706" />
</g></g><g
     transform="translate(760,520) scale(0.08,0.08)"
     id="g716"><g
       transform=""
       style="fill: rgb(0, 0, 0);"
       id="g714">
<path
   d="M250,0c138.077,0,250,111.93,250,250c0,138.077-111.923,250-250,250C111.93,500,0,388.077,0,250C0,111.93,111.93,0,250,0z"
   id="path712" />
</g></g><g
     transform="translate(960,520) scale(0.08,0.08)"
     id="g722"><g
       transform=""
       style="fill: rgb(0, 0, 0);"
       id="g720">
<path
   d="M250,0c138.077,0,250,111.93,250,250c0,138.077-111.923,250-250,250C111.93,500,0,388.077,0,250C0,111.93,111.93,0,250,0z"
   id="path718" />
</g></g><g
     transform="translate(40,560) scale(0.08,0.08)"
     id="g728"><g
       transform=""
       style="fill: rgb(0, 0, 0);"
       id="g726">
<path
   d="M250,0c138.077,0,250,111.93,250,250c0,138.077-111.923,250-250,250C111.93,500,0,388.077,0,250C0,111.93,111.93,0,250,0z"
   id="path724" />
</g></g><g
     transform="translate(120,560) scale(0.08,0.08)"
     id="g734"><g
       transform=""
       style="fill: rgb(0, 0, 0);"
       id="g732">
<path
   d="M250,0c138.077,0,250,111.93,250,250c0,138.077-111.923,250-250,250C111.93,500,0,388.077,0,250C0,111.93,111.93,0,250,0z"
   id="path730" />
</g></g><g
     transform="translate(160,560) scale(0.08,0.08)"
     id="g740"><g
       transform=""
       style="fill: rgb(0, 0, 0);"
       id="g738">
<path
   d="M250,0c138.077,0,250,111.93,250,250c0,138.077-111.923,250-250,250C111.93,500,0,388.077,0,250C0,111.93,111.93,0,250,0z"
   id="path736" />
</g></g><g
     transform="translate(240,560) scale(0.08,0.08)"
     id="g746"><g
       transform=""
       style="fill: rgb(0, 0, 0);"
       id="g744">
<path
   d="M250,0c138.077,0,250,111.93,250,250c0,138.077-111.923,250-250,250C111.93,500,0,388.077,0,250C0,111.93,111.93,0,250,0z"
   id="path742" />
</g></g><g
     transform="translate(360,560) scale(0.08,0.08)"
     id="g752"><g
       transform=""
       style="fill: rgb(0, 0, 0);"
       id="g750">
<path
   d="M250,0c138.077,0,250,111.93,250,250c0,138.077-111.923,250-250,250C111.93,500,0,388.077,0,250C0,111.93,111.93,0,250,0z"
   id="path748" />
</g></g><g
     transform="translate(400,560) scale(0.08,0.08)"
     id="g758"><g
       transform=""
       style="fill: rgb(0, 0, 0);"
       id="g756">
<path
   d="M250,0c138.077,0,250,111.93,250,250c0,138.077-111.923,250-250,250C111.93,500,0,388.077,0,250C0,111.93,111.93,0,250,0z"
   id="path754" />
</g></g><g
     transform="translate(440,560) scale(0.08,0.08)"
     id="g764"><g
       transform=""
       style="fill: rgb(0, 0, 0);"
       id="g762">
<path
   d="M250,0c138.077,0,250,111.93,250,250c0,138.077-111.923,250-250,250C111.93,500,0,388.077,0,250C0,111.93,111.93,0,250,0z"
   id="path760" />
</g></g><g
     transform="translate(560,560) scale(0.08,0.08)"
     id="g770"><g
       transform=""
       style="fill: rgb(0, 0, 0);"
       id="g768">
<path
   d="M250,0c138.077,0,250,111.93,250,250c0,138.077-111.923,250-250,250C111.93,500,0,388.077,0,250C0,111.93,111.93,0,250,0z"
   id="path766" />
</g></g><g
     transform="translate(720,560) scale(0.08,0.08)"
     id="g776"><g
       transform=""
       style="fill: rgb(0, 0, 0);"
       id="g774">
<path
   d="M250,0c138.077,0,250,111.93,250,250c0,138.077-111.923,250-250,250C111.93,500,0,388.077,0,250C0,111.93,111.93,0,250,0z"
   id="path772" />
</g></g><g
     transform="translate(800,560) scale(0.08,0.08)"
     id="g782"><g
       transform=""
       style="fill: rgb(0, 0, 0);"
       id="g780">
<path
   d="M250,0c138.077,0,250,111.93,250,250c0,138.077-111.923,250-250,250C111.93,500,0,388.077,0,250C0,111.93,111.93,0,250,0z"
   id="path778" />
</g></g><g
     transform="translate(880,560) scale(0.08,0.08)"
     id="g788"><g
       transform=""
       style="fill: rgb(0, 0, 0);"
       id="g786">
<path
   d="M250,0c138.077,0,250,111.93,250,250c0,138.077-111.923,250-250,250C111.93,500,0,388.077,0,250C0,111.93,111.93,0,250,0z"
   id="path784" />
</g></g><g
     transform="translate(920,560) scale(0.08,0.08)"
     id="g794"><g
       transform=""
       style="fill: rgb(0, 0, 0);"
       id="g792">
<path
   d="M250,0c138.077,0,250,111.93,250,250c0,138.077-111.923,250-250,250C111.93,500,0,388.077,0,250C0,111.93,111.93,0,250,0z"
   id="path790" />
</g></g><g
     transform="translate(0,600) scale(0.08,0.08)"
     id="g800"><g
       transform=""
       style="fill: rgb(0, 0, 0);"
       id="g798">
<path
   d="M250,0c138.077,0,250,111.93,250,250c0,138.077-111.923,250-250,250C111.93,500,0,388.077,0,250C0,111.93,111.93,0,250,0z"
   id="path796" />
</g></g><g
     transform="translate(200,600) scale(0.08,0.08)"
     id="g806"><g
       transform=""
       style="fill: rgb(0, 0, 0);"
       id="g804">
<path
   d="M250,0c138.077,0,250,111.93,250,250c0,138.077-111.923,250-250,250C111.93,500,0,388.077,0,250C0,111.93,111.93,0,250,0z"
   id="path802" />
</g></g><g
     transform="translate(320,600) scale(0.08,0.08)"
     id="g812"><g
       transform=""
       style="fill: rgb(0, 0, 0);"
       id="g810">
<path
   d="M250,0c138.077,0,250,111.93,250,250c0,138.077-111.923,250-250,250C111.93,500,0,388.077,0,250C0,111.93,111.93,0,250,0z"
   id="path808" />
</g></g><g
     transform="translate(440,600) scale(0.08,0.08)"
     id="g818"><g
       transform=""
       style="fill: rgb(0, 0, 0);"
       id="g816">
<path
   d="M250,0c138.077,0,250,111.93,250,250c0,138.077-111.923,250-250,250C111.93,500,0,388.077,0,250C0,111.93,111.93,0,250,0z"
   id="path814" />
</g></g><g
     transform="translate(680,600) scale(0.08,0.08)"
     id="g824"><g
       transform=""
       style="fill: rgb(0, 0, 0);"
       id="g822">
<path
   d="M250,0c138.077,0,250,111.93,250,250c0,138.077-111.923,250-250,250C111.93,500,0,388.077,0,250C0,111.93,111.93,0,250,0z"
   id="path820" />
</g></g><g
     transform="translate(760,600) scale(0.08,0.08)"
     id="g830"><g
       transform=""
       style="fill: rgb(0, 0, 0);"
       id="g828">
<path
   d="M250,0c138.077,0,250,111.93,250,250c0,138.077-111.923,250-250,250C111.93,500,0,388.077,0,250C0,111.93,111.93,0,250,0z"
   id="path826" />
</g></g><g
     transform="translate(800,600) scale(0.08,0.08)"
     id="g836"><g
       transform=""
       style="fill: rgb(0, 0, 0);"
       id="g834">
<path
   d="M250,0c138.077,0,250,111.93,250,250c0,138.077-111.923,250-250,250C111.93,500,0,388.077,0,250C0,111.93,111.93,0,250,0z"
   id="path832" />
</g></g><g
     transform="translate(960,600) scale(0.08,0.08)"
     id="g842"><g
       transform=""
       style="fill: rgb(0, 0, 0);"
       id="g840">
<path
   d="M250,0c138.077,0,250,111.93,250,250c0,138.077-111.923,250-250,250C111.93,500,0,388.077,0,250C0,111.93,111.93,0,250,0z"
   id="path838" />
</g></g><g
     transform="translate(80,640) scale(0.08,0.08)"
     id="g848"><g
       transform=""
       style="fill: rgb(0, 0, 0);"
       id="g846">
<path
   d="M250,0c138.077,0,250,111.93,250,250c0,138.077-111.923,250-250,250C111.93,500,0,388.077,0,250C0,111.93,111.93,0,250,0z"
   id="path844" />
</g></g><g
     transform="translate(160,640) scale(0.08,0.08)"
     id="g854"><g
       transform=""
       style="fill: rgb(0, 0, 0);"
       id="g852">
<path
   d="M250,0c138.077,0,250,111.93,250,250c0,138.077-111.923,250-250,250C111.93,500,0,388.077,0,250C0,111.93,111.93,0,250,0z"
   id="path850" />
</g></g><g
     transform="translate(200,640) scale(0.08,0.08)"
     id="g860"><g
       transform=""
       style="fill: rgb(0, 0, 0);"
       id="g858">
<path
   d="M250,0c138.077,0,250,111.93,250,250c0,138.077-111.923,250-250,250C111.93,500,0,388.077,0,250C0,111.93,111.93,0,250,0z"
   id="path856" />
</g></g><g
     transform="translate(240,640) scale(0.08,0.08)"
     id="g866"><g
       transform=""
       style="fill: rgb(0, 0, 0);"
       id="g864">
<path
   d="M250,0c138.077,0,250,111.93,250,250c0,138.077-111.923,250-250,250C111.93,500,0,388.077,0,250C0,111.93,111.93,0,250,0z"
   id="path862" />
</g></g><g
     transform="translate(320,640) scale(0.08,0.08)"
     id="g872"><g
       transform=""
       style="fill: rgb(0, 0, 0);"
       id="g870">
<path
   d="M250,0c138.077,0,250,111.93,250,250c0,138.077-111.923,250-250,250C111.93,500,0,388.077,0,250C0,111.93,111.93,0,250,0z"
   id="path868" />
</g></g><g
     transform="translate(480,640) scale(0.08,0.08)"
     id="g878"><g
       transform=""
       style="fill: rgb(0, 0, 0);"
       id="g876">
<path
   d="M250,0c138.077,0,250,111.93,250,250c0,138.077-111.923,250-250,250C111.93,500,0,388.077,0,250C0,111.93,111.93,0,250,0z"
   id="path874" />
</g></g><g
     transform="translate(520,640) scale(0.08,0.08)"
     id="g884"><g
       transform=""
       style="fill: rgb(0, 0, 0);"
       id="g882">
<path
   d="M250,0c138.077,0,250,111.93,250,250c0,138.077-111.923,250-250,250C111.93,500,0,388.077,0,250C0,111.93,111.93,0,250,0z"
   id="path880" />
</g></g><g
     transform="translate(640,640) scale(0.08,0.08)"
     id="g890"><g
       transform=""
       style="fill: rgb(0, 0, 0);"
       id="g888">
<path
   d="M250,0c138.077,0,250,111.93,250,250c0,138.077-111.923,250-250,250C111.93,500,0,388.077,0,250C0,111.93,111.93,0,250,0z"
   id="path886" />
</g></g><g
     transform="translate(680,640) scale(0.08,0.08)"
     id="g896"><g
       transform=""
       style="fill: rgb(0, 0, 0);"
       id="g894">
<path
   d="M250,0c138.077,0,250,111.93,250,250c0,138.077-111.923,250-250,250C111.93,500,0,388.077,0,250C0,111.93,111.93,0,250,0z"
   id="path892" />
</g></g><g
     transform="translate(720,640) scale(0.08,0.08)"
     id="g902"><g
       transform=""
       style="fill: rgb(0, 0, 0);"
       id="g900">
<path
   d="M250,0c138.077,0,250,111.93,250,250c0,138.077-111.923,250-250,250C111.93,500,0,388.077,0,250C0,111.93,111.93,0,250,0z"
   id="path898" />
</g></g><g
     transform="translate(760,640) scale(0.08,0.08)"
     id="g908"><g
       transform=""
       style="fill: rgb(0, 0, 0);"
       id="g906">
<path
   d="M250,0c138.077,0,250,111.93,250,250c0,138.077-111.923,250-250,250C111.93,500,0,388.077,0,250C0,111.93,111.93,0,250,0z"
   id="path904" />
</g></g><g
     transform="translate(800,640) scale(0.08,0.08)"
     id="g914"><g
       transform=""
       style="fill: rgb(0, 0, 0);"
       id="g912">
<path
   d="M250,0c138.077,0,250,111.93,250,250c0,138.077-111.923,250-250,250C111.93,500,0,388.077,0,250C0,111.93,111.93,0,250,0z"
   id="path910" />
</g></g><g
     transform="translate(840,640) scale(0.08,0.08)"
     id="g920"><g
       transform=""
       style="fill: rgb(0, 0, 0);"
       id="g918">
<path
   d="M250,0c138.077,0,250,111.93,250,250c0,138.077-111.923,250-250,250C111.93,500,0,388.077,0,250C0,111.93,111.93,0,250,0z"
   id="path916" />
</g></g><g
     transform="translate(880,640) scale(0.08,0.08)"
     id="g926"><g
       transform=""
       style="fill: rgb(0, 0, 0);"
       id="g924">
<path
   d="M250,0c138.077,0,250,111.93,250,250c0,138.077-111.923,250-250,250C111.93,500,0,388.077,0,250C0,111.93,111.93,0,250,0z"
   id="path922" />
</g></g><g
     transform="translate(920,640) scale(0.08,0.08)"
     id="g932"><g
       transform=""
       style="fill: rgb(0, 0, 0);"
       id="g930">
<path
   d="M250,0c138.077,0,250,111.93,250,250c0,138.077-111.923,250-250,250C111.93,500,0,388.077,0,250C0,111.93,111.93,0,250,0z"
   id="path928" />
</g></g><g
     transform="translate(960,640) scale(0.08,0.08)"
     id="g938"><g
       transform=""
       style="fill: rgb(0, 0, 0);"
       id="g936">
<path
   d="M250,0c138.077,0,250,111.93,250,250c0,138.077-111.923,250-250,250C111.93,500,0,388.077,0,250C0,111.93,111.93,0,250,0z"
   id="path934" />
</g></g><g
     transform="translate(320,680) scale(0.08,0.08)"
     id="g944"><g
       transform=""
       style="fill: rgb(0, 0, 0);"
       id="g942">
<path
   d="M250,0c138.077,0,250,111.93,250,250c0,138.077-111.923,250-250,250C111.93,500,0,388.077,0,250C0,111.93,111.93,0,250,0z"
   id="path940" />
</g></g><g
     transform="translate(400,680) scale(0.08,0.08)"
     id="g950"><g
       transform=""
       style="fill: rgb(0, 0, 0);"
       id="g948">
<path
   d="M250,0c138.077,0,250,111.93,250,250c0,138.077-111.923,250-250,250C111.93,500,0,388.077,0,250C0,111.93,111.93,0,250,0z"
   id="path946" />
</g></g><g
     transform="translate(600,680) scale(0.08,0.08)"
     id="g956"><g
       transform=""
       style="fill: rgb(0, 0, 0);"
       id="g954">
<path
   d="M250,0c138.077,0,250,111.93,250,250c0,138.077-111.923,250-250,250C111.93,500,0,388.077,0,250C0,111.93,111.93,0,250,0z"
   id="path952" />
</g></g><g
     transform="translate(640,680) scale(0.08,0.08)"
     id="g962"><g
       transform=""
       style="fill: rgb(0, 0, 0);"
       id="g960">
<path
   d="M250,0c138.077,0,250,111.93,250,250c0,138.077-111.923,250-250,250C111.93,500,0,388.077,0,250C0,111.93,111.93,0,250,0z"
   id="path958" />
</g></g><g
     transform="translate(800,680) scale(0.08,0.08)"
     id="g968"><g
       transform=""
       style="fill: rgb(0, 0, 0);"
       id="g966">
<path
   d="M250,0c138.077,0,250,111.93,250,250c0,138.077-111.923,250-250,250C111.93,500,0,388.077,0,250C0,111.93,111.93,0,250,0z"
   id="path964" />
</g></g><g
     transform="translate(880,680) scale(0.08,0.08)"
     id="g974"><g
       transform=""
       style="fill: rgb(0, 0, 0);"
       id="g972">
<path
   d="M250,0c138.077,0,250,111.93,250,250c0,138.077-111.923,250-250,250C111.93,500,0,388.077,0,250C0,111.93,111.93,0,250,0z"
   id="path970" />
</g></g><g
     transform="translate(960,680) scale(0.08,0.08)"
     id="g980"><g
       transform=""
       style="fill: rgb(0, 0, 0);"
       id="g978">
<path
   d="M250,0c138.077,0,250,111.93,250,250c0,138.077-111.923,250-250,250C111.93,500,0,388.077,0,250C0,111.93,111.93,0,250,0z"
   id="path976" />
</g></g><g
     transform="translate(320,720) scale(0.08,0.08)"
     id="g986"><g
       transform=""
       style="fill: rgb(0, 0, 0);"
       id="g984">
<path
   d="M250,0c138.077,0,250,111.93,250,250c0,138.077-111.923,250-250,250C111.93,500,0,388.077,0,250C0,111.93,111.93,0,250,0z"
   id="path982" />
</g></g><g
     transform="translate(400,720) scale(0.08,0.08)"
     id="g992"><g
       transform=""
       style="fill: rgb(0, 0, 0);"
       id="g990">
<path
   d="M250,0c138.077,0,250,111.93,250,250c0,138.077-111.923,250-250,250C111.93,500,0,388.077,0,250C0,111.93,111.93,0,250,0z"
   id="path988" />
</g></g><g
     transform="translate(640,720) scale(0.08,0.08)"
     id="g998"><g
       transform=""
       style="fill: rgb(0, 0, 0);"
       id="g996">
<path
   d="M250,0c138.077,0,250,111.93,250,250c0,138.077-111.923,250-250,250C111.93,500,0,388.077,0,250C0,111.93,111.93,0,250,0z"
   id="path994" />
</g></g><g
     transform="translate(720,720) scale(0.08,0.08)"
     id="g1004"><g
       transform=""
       style="fill: rgb(0, 0, 0);"
       id="g1002">
<path
   d="M250,0c138.077,0,250,111.93,250,250c0,138.077-111.923,250-250,250C111.93,500,0,388.077,0,250C0,111.93,111.93,0,250,0z"
   id="path1000" />
</g></g><g
     transform="translate(800,720) scale(0.08,0.08)"
     id="g1010"><g
       transform=""
       style="fill: rgb(0, 0, 0);"
       id="g1008">
<path
   d="M250,0c138.077,0,250,111.93,250,250c0,138.077-111.923,250-250,250C111.93,500,0,388.077,0,250C0,111.93,111.93,0,250,0z"
   id="path1006" />
</g></g><g
     transform="translate(880,720) scale(0.08,0.08)"
     id="g1016"><g
       transform=""
       style="fill: rgb(0, 0, 0);"
       id="g1014">
<path
   d="M250,0c138.077,0,250,111.93,250,250c0,138.077-111.923,250-250,250C111.93,500,0,388.077,0,250C0,111.93,111.93,0,250,0z"
   id="path1012" />
</g></g><g
     transform="translate(920,720) scale(0.08,0.08)"
     id="g1022"><g
       transform=""
       style="fill: rgb(0, 0, 0);"
       id="g1020">
<path
   d="M250,0c138.077,0,250,111.93,250,250c0,138.077-111.923,250-250,250C111.93,500,0,388.077,0,250C0,111.93,111.93,0,250,0z"
   id="path1018" />
</g></g><g
     transform="translate(960,720) scale(0.08,0.08)"
     id="g1028"><g
       transform=""
       style="fill: rgb(0, 0, 0);"
       id="g1026">
<path
   d="M250,0c138.077,0,250,111.93,250,250c0,138.077-111.923,250-250,250C111.93,500,0,388.077,0,250C0,111.93,111.93,0,250,0z"
   id="path1024" />
</g></g><g
     transform="translate(320,760) scale(0.08,0.08)"
     id="g1034"><g
       transform=""
       style="fill: rgb(0, 0, 0);"
       id="g1032">
<path
   d="M250,0c138.077,0,250,111.93,250,250c0,138.077-111.923,250-250,250C111.93,500,0,388.077,0,250C0,111.93,111.93,0,250,0z"
   id="path1030" />
</g></g><g
     transform="translate(360,760) scale(0.08,0.08)"
     id="g1040"><g
       transform=""
       style="fill: rgb(0, 0, 0);"
       id="g1038">
<path
   d="M250,0c138.077,0,250,111.93,250,250c0,138.077-111.923,250-250,250C111.93,500,0,388.077,0,250C0,111.93,111.93,0,250,0z"
   id="path1036" />
</g></g><g
     transform="translate(440,760) scale(0.08,0.08)"
     id="g1046"><g
       transform=""
       style="fill: rgb(0, 0, 0);"
       id="g1044">
<path
   d="M250,0c138.077,0,250,111.93,250,250c0,138.077-111.923,250-250,250C111.93,500,0,388.077,0,250C0,111.93,111.93,0,250,0z"
   id="path1042" />
</g></g><g
     transform="translate(600,760) scale(0.08,0.08)"
     id="g1052"><g
       transform=""
       style="fill: rgb(0, 0, 0);"
       id="g1050">
<path
   d="M250,0c138.077,0,250,111.93,250,250c0,138.077-111.923,250-250,250C111.93,500,0,388.077,0,250C0,111.93,111.93,0,250,0z"
   id="path1048" />
</g></g><g
     transform="translate(640,760) scale(0.08,0.08)"
     id="g1058"><g
       transform=""
       style="fill: rgb(0, 0, 0);"
       id="g1056">
<path
   d="M250,0c138.077,0,250,111.93,250,250c0,138.077-111.923,250-250,250C111.93,500,0,388.077,0,250C0,111.93,111.93,0,250,0z"
   id="path1054" />
</g></g><g
     transform="translate(800,760) scale(0.08,0.08)"
     id="g1064"><g
       transform=""
       style="fill: rgb(0, 0, 0);"
       id="g1062">
<path
   d="M250,0c138.077,0,250,111.93,250,250c0,138.077-111.923,250-250,250C111.93,500,0,388.077,0,250C0,111.93,111.93,0,250,0z"
   id="path1060" />
</g></g><g
     transform="translate(960,760) scale(0.08,0.08)"
     id="g1070"><g
       transform=""
       style="fill: rgb(0, 0, 0);"
       id="g1068">
<path
   d="M250,0c138.077,0,250,111.93,250,250c0,138.077-111.923,250-250,250C111.93,500,0,388.077,0,250C0,111.93,111.93,0,250,0z"
   id="path1066" />
</g></g><g
     transform="translate(360,800) scale(0.08,0.08)"
     id="g1076"><g
       transform=""
       style="fill: rgb(0, 0, 0);"
       id="g1074">
<path
   d="M250,0c138.077,0,250,111.93,250,250c0,138.077-111.923,250-250,250C111.93,500,0,388.077,0,250C0,111.93,111.93,0,250,0z"
   id="path1072" />
</g></g><g
     transform="translate(560,800) scale(0.08,0.08)"
     id="g1082"><g
       transform=""
       style="fill: rgb(0, 0, 0);"
       id="g1080">
<path
   d="M250,0c138.077,0,250,111.93,250,250c0,138.077-111.923,250-250,250C111.93,500,0,388.077,0,250C0,111.93,111.93,0,250,0z"
   id="path1078" />
</g></g><g
     transform="translate(640,800) scale(0.08,0.08)"
     id="g1088"><g
       transform=""
       style="fill: rgb(0, 0, 0);"
       id="g1086">
<path
   d="M250,0c138.077,0,250,111.93,250,250c0,138.077-111.923,250-250,250C111.93,500,0,388.077,0,250C0,111.93,111.93,0,250,0z"
   id="path1084" />
</g></g><g
     transform="translate(680,800) scale(0.08,0.08)"
     id="g1094"><g
       transform=""
       style="fill: rgb(0, 0, 0);"
       id="g1092">
<path
   d="M250,0c138.077,0,250,111.93,250,250c0,138.077-111.923,250-250,250C111.93,500,0,388.077,0,250C0,111.93,111.93,0,250,0z"
   id="path1090" />
</g></g><g
     transform="translate(720,800) scale(0.08,0.08)"
     id="g1100"><g
       transform=""
       style="fill: rgb(0, 0, 0);"
       id="g1098">
<path
   d="M250,0c138.077,0,250,111.93,250,250c0,138.077-111.923,250-250,250C111.93,500,0,388.077,0,250C0,111.93,111.93,0,250,0z"
   id="path1096" />
</g></g><g
     transform="translate(760,800) scale(0.08,0.08)"
     id="g1106"><g
       transform=""
       style="fill: rgb(0, 0, 0);"
       id="g1104">
<path
   d="M250,0c138.077,0,250,111.93,250,250c0,138.077-111.923,250-250,250C111.93,500,0,388.077,0,250C0,111.93,111.93,0,250,0z"
   id="path1102" />
</g></g><g
     transform="translate(800,800) scale(0.08,0.08)"
     id="g1112"><g
       transform=""
       style="fill: rgb(0, 0, 0);"
       id="g1110">
<path
   d="M250,0c138.077,0,250,111.93,250,250c0,138.077-111.923,250-250,250C111.93,500,0,388.077,0,250C0,111.93,111.93,0,250,0z"
   id="path1108" />
</g></g><g
     transform="translate(840,800) scale(0.08,0.08)"
     id="g1118"><g
       transform=""
       style="fill: rgb(0, 0, 0);"
       id="g1116">
<path
   d="M250,0c138.077,0,250,111.93,250,250c0,138.077-111.923,250-250,250C111.93,500,0,388.077,0,250C0,111.93,111.93,0,250,0z"
   id="path1114" />
</g></g><g
     transform="translate(920,800) scale(0.08,0.08)"
     id="g1124"><g
       transform=""
       style="fill: rgb(0, 0, 0);"
       id="g1122">
<path
   d="M250,0c138.077,0,250,111.93,250,250c0,138.077-111.923,250-250,250C111.93,500,0,388.077,0,250C0,111.93,111.93,0,250,0z"
   id="path1120" />
</g></g><g
     transform="translate(320,840) scale(0.08,0.08)"
     id="g1130"><g
       transform=""
       style="fill: rgb(0, 0, 0);"
       id="g1128">
<path
   d="M250,0c138.077,0,250,111.93,250,250c0,138.077-111.923,250-250,250C111.93,500,0,388.077,0,250C0,111.93,111.93,0,250,0z"
   id="path1126" />
</g></g><g
     transform="translate(360,840) scale(0.08,0.08)"
     id="g1136"><g
       transform=""
       style="fill: rgb(0, 0, 0);"
       id="g1134">
<path
   d="M250,0c138.077,0,250,111.93,250,250c0,138.077-111.923,250-250,250C111.93,500,0,388.077,0,250C0,111.93,111.93,0,250,0z"
   id="path1132" />
</g></g><g
     transform="translate(400,840) scale(0.08,0.08)"
     id="g1142"><g
       transform=""
       style="fill: rgb(0, 0, 0);"
       id="g1140">
<path
   d="M250,0c138.077,0,250,111.93,250,250c0,138.077-111.923,250-250,250C111.93,500,0,388.077,0,250C0,111.93,111.93,0,250,0z"
   id="path1138" />
</g></g><g
     transform="translate(520,840) scale(0.08,0.08)"
     id="g1148"><g
       transform=""
       style="fill: rgb(0, 0, 0);"
       id="g1146">
<path
   d="M250,0c138.077,0,250,111.93,250,250c0,138.077-111.923,250-250,250C111.93,500,0,388.077,0,250C0,111.93,111.93,0,250,0z"
   id="path1144" />
</g></g><g
     transform="translate(600,840) scale(0.08,0.08)"
     id="g1154"><g
       transform=""
       style="fill: rgb(0, 0, 0);"
       id="g1152">
<path
   d="M250,0c138.077,0,250,111.93,250,250c0,138.077-111.923,250-250,250C111.93,500,0,388.077,0,250C0,111.93,111.93,0,250,0z"
   id="path1150" />
</g></g><g
     transform="translate(640,840) scale(0.08,0.08)"
     id="g1160"><g
       transform=""
       style="fill: rgb(0, 0, 0);"
       id="g1158">
<path
   d="M250,0c138.077,0,250,111.93,250,250c0,138.077-111.923,250-250,250C111.93,500,0,388.077,0,250C0,111.93,111.93,0,250,0z"
   id="path1156" />
</g></g><g
     transform="translate(800,840) scale(0.08,0.08)"
     id="g1166"><g
       transform=""
       style="fill: rgb(0, 0, 0);"
       id="g1164">
<path
   d="M250,0c138.077,0,250,111.93,250,250c0,138.077-111.923,250-250,250C111.93,500,0,388.077,0,250C0,111.93,111.93,0,250,0z"
   id="path1162" />
</g></g><g
     transform="translate(840,840) scale(0.08,0.08)"
     id="g1172"><g
       transform=""
       style="fill: rgb(0, 0, 0);"
       id="g1170">
<path
   d="M250,0c138.077,0,250,111.93,250,250c0,138.077-111.923,250-250,250C111.93,500,0,388.077,0,250C0,111.93,111.93,0,250,0z"
   id="path1168" />
</g></g><g
     transform="translate(880,840) scale(0.08,0.08)"
     id="g1178"><g
       transform=""
       style="fill: rgb(0, 0, 0);"
       id="g1176">
<path
   d="M250,0c138.077,0,250,111.93,250,250c0,138.077-111.923,250-250,250C111.93,500,0,388.077,0,250C0,111.93,111.93,0,250,0z"
   id="path1174" />
</g></g><g
     transform="translate(920,840) scale(0.08,0.08)"
     id="g1184"><g
       transform=""
       style="fill: rgb(0, 0, 0);"
       id="g1182">
<path
   d="M250,0c138.077,0,250,111.93,250,250c0,138.077-111.923,250-250,250C111.93,500,0,388.077,0,250C0,111.93,111.93,0,250,0z"
   id="path1180" />
</g></g><g
     transform="translate(960,840) scale(0.08,0.08)"
     id="g1190"><g
       transform=""
       style="fill: rgb(0, 0, 0);"
       id="g1188">
<path
   d="M250,0c138.077,0,250,111.93,250,250c0,138.077-111.923,250-250,250C111.93,500,0,388.077,0,250C0,111.93,111.93,0,250,0z"
   id="path1186" />
</g></g><g
     transform="translate(320,880) scale(0.08,0.08)"
     id="g1196"><g
       transform=""
       style="fill: rgb(0, 0, 0);"
       id="g1194">
<path
   d="M250,0c138.077,0,250,111.93,250,250c0,138.077-111.923,250-250,250C111.93,500,0,388.077,0,250C0,111.93,111.93,0,250,0z"
   id="path1192" />
</g></g><g
     transform="translate(360,880) scale(0.08,0.08)"
     id="g1202"><g
       transform=""
       style="fill: rgb(0, 0, 0);"
       id="g1200">
<path
   d="M250,0c138.077,0,250,111.93,250,250c0,138.077-111.923,250-250,250C111.93,500,0,388.077,0,250C0,111.93,111.93,0,250,0z"
   id="path1198" />
</g></g><g
     transform="translate(400,880) scale(0.08,0.08)"
     id="g1208"><g
       transform=""
       style="fill: rgb(0, 0, 0);"
       id="g1206">
<path
   d="M250,0c138.077,0,250,111.93,250,250c0,138.077-111.923,250-250,250C111.93,500,0,388.077,0,250C0,111.93,111.93,0,250,0z"
   id="path1204" />
</g></g><g
     transform="translate(520,880) scale(0.08,0.08)"
     id="g1214"><g
       transform=""
       style="fill: rgb(0, 0, 0);"
       id="g1212">
<path
   d="M250,0c138.077,0,250,111.93,250,250c0,138.077-111.923,250-250,250C111.93,500,0,388.077,0,250C0,111.93,111.93,0,250,0z"
   id="path1210" />
</g></g><g
     transform="translate(600,880) scale(0.08,0.08)"
     id="g1220"><g
       transform=""
       style="fill: rgb(0, 0, 0);"
       id="g1218">
<path
   d="M250,0c138.077,0,250,111.93,250,250c0,138.077-111.923,250-250,250C111.93,500,0,388.077,0,250C0,111.93,111.93,0,250,0z"
   id="path1216" />
</g></g><g
     transform="translate(640,880) scale(0.08,0.08)"
     id="g1226"><g
       transform=""
       style="fill: rgb(0, 0, 0);"
       id="g1224">
<path
   d="M250,0c138.077,0,250,111.93,250,250c0,138.077-111.923,250-250,250C111.93,500,0,388.077,0,250C0,111.93,111.93,0,250,0z"
   id="path1222" />
</g></g><g
     transform="translate(720,880) scale(0.08,0.08)"
     id="g1232"><g
       transform=""
       style="fill: rgb(0, 0, 0);"
       id="g1230">
<path
   d="M250,0c138.077,0,250,111.93,250,250c0,138.077-111.923,250-250,250C111.93,500,0,388.077,0,250C0,111.93,111.93,0,250,0z"
   id="path1228" />
</g></g><g
     transform="translate(800,880) scale(0.08,0.08)"
     id="g1238"><g
       transform=""
       style="fill: rgb(0, 0, 0);"
       id="g1236">
<path
   d="M250,0c138.077,0,250,111.93,250,250c0,138.077-111.923,250-250,250C111.93,500,0,388.077,0,250C0,111.93,111.93,0,250,0z"
   id="path1234" />
</g></g><g
     transform="translate(880,880) scale(0.08,0.08)"
     id="g1244"><g
       transform=""
       style="fill: rgb(0, 0, 0);"
       id="g1242">
<path
   d="M250,0c138.077,0,250,111.93,250,250c0,138.077-111.923,250-250,250C111.93,500,0,388.077,0,250C0,111.93,111.93,0,250,0z"
   id="path1240" />
</g></g><g
     transform="translate(920,880) scale(0.08,0.08)"
     id="g1250"><g
       transform=""
       style="fill: rgb(0, 0, 0);"
       id="g1248">
<path
   d="M250,0c138.077,0,250,111.93,250,250c0,138.077-111.923,250-250,250C111.93,500,0,388.077,0,250C0,111.93,111.93,0,250,0z"
   id="path1246" />
</g></g><g
     transform="translate(360,920) scale(0.08,0.08)"
     id="g1256"><g
       transform=""
       style="fill: rgb(0, 0, 0);"
       id="g1254">
<path
   d="M250,0c138.077,0,250,111.93,250,250c0,138.077-111.923,250-250,250C111.93,500,0,388.077,0,250C0,111.93,111.93,0,250,0z"
   id="path1252" />
</g></g><g
     transform="translate(400,920) scale(0.08,0.08)"
     id="g1262"><g
       transform=""
       style="fill: rgb(0, 0, 0);"
       id="g1260">
<path
   d="M250,0c138.077,0,250,111.93,250,250c0,138.077-111.923,250-250,250C111.93,500,0,388.077,0,250C0,111.93,111.93,0,250,0z"
   id="path1258" />
</g></g><g
     transform="translate(440,920) scale(0.08,0.08)"
     id="g1268"><g
       transform=""
       style="fill: rgb(0, 0, 0);"
       id="g1266">
<path
   d="M250,0c138.077,0,250,111.93,250,250c0,138.077-111.923,250-250,250C111.93,500,0,388.077,0,250C0,111.93,111.93,0,250,0z"
   id="path1264" />
</g></g><g
     transform="translate(480,920) scale(0.08,0.08)"
     id="g1274"><g
       transform=""
       style="fill: rgb(0, 0, 0);"
       id="g1272">
<path
   d="M250,0c138.077,0,250,111.93,250,250c0,138.077-111.923,250-250,250C111.93,500,0,388.077,0,250C0,111.93,111.93,0,250,0z"
   id="path1270" />
</g></g><g
     transform="translate(520,920) scale(0.08,0.08)"
     id="g1280"><g
       transform=""
       style="fill: rgb(0, 0, 0);"
       id="g1278">
<path
   d="M250,0c138.077,0,250,111.93,250,250c0,138.077-111.923,250-250,250C111.93,500,0,388.077,0,250C0,111.93,111.93,0,250,0z"
   id="path1276" />
</g></g><g
     transform="translate(560,920) scale(0.08,0.08)"
     id="g1286"><g
       transform=""
       style="fill: rgb(0, 0, 0);"
       id="g1284">
<path
   d="M250,0c138.077,0,250,111.93,250,250c0,138.077-111.923,250-250,250C111.93,500,0,388.077,0,250C0,111.93,111.93,0,250,0z"
   id="path1282" />
</g></g><g
     transform="translate(680,920) scale(0.08,0.08)"
     id="g1292"><g
       transform=""
       style="fill: rgb(0, 0, 0);"
       id="g1290">
<path
   d="M250,0c138.077,0,250,111.93,250,250c0,138.077-111.923,250-250,250C111.93,500,0,388.077,0,250C0,111.93,111.93,0,250,0z"
   id="path1288" />
</g></g><g
     transform="translate(800,920) scale(0.08,0.08)"
     id="g1298"><g
       transform=""
       style="fill: rgb(0, 0, 0);"
       id="g1296">
<path
   d="M250,0c138.077,0,250,111.93,250,250c0,138.077-111.923,250-250,250C111.93,500,0,388.077,0,250C0,111.93,111.93,0,250,0z"
   id="path1294" />
</g></g><g
     transform="translate(880,920) scale(0.08,0.08)"
     id="g1304"><g
       transform=""
       style="fill: rgb(0, 0, 0);"
       id="g1302">
<path
   d="M250,0c138.077,0,250,111.93,250,250c0,138.077-111.923,250-250,250C111.93,500,0,388.077,0,250C0,111.93,111.93,0,250,0z"
   id="path1300" />
</g></g><g
     transform="translate(320,960) scale(0.08,0.08)"
     id="g1310"><g
       transform=""
       style="fill: rgb(0, 0, 0);"
       id="g1308">
<path
   d="M250,0c138.077,0,250,111.93,250,250c0,138.077-111.923,250-250,250C111.93,500,0,388.077,0,250C0,111.93,111.93,0,250,0z"
   id="path1306" />
</g></g><g
     transform="translate(360,960) scale(0.08,0.08)"
     id="g1316"><g
       transform=""
       style="fill: rgb(0, 0, 0);"
       id="g1314">
<path
   d="M250,0c138.077,0,250,111.93,250,250c0,138.077-111.923,250-250,250C111.93,500,0,388.077,0,250C0,111.93,111.93,0,250,0z"
   id="path1312" />
</g></g><g
     transform="translate(440,960) scale(0.08,0.08)"
     id="g1322"><g
       transform=""
       style="fill: rgb(0, 0, 0);"
       id="g1320">
<path
   d="M250,0c138.077,0,250,111.93,250,250c0,138.077-111.923,250-250,250C111.93,500,0,388.077,0,250C0,111.93,111.93,0,250,0z"
   id="path1318" />
</g></g><g
     transform="translate(480,960) scale(0.08,0.08)"
     id="g1328"><g
       transform=""
       style="fill: rgb(0, 0, 0);"
       id="g1326">
<path
   d="M250,0c138.077,0,250,111.93,250,250c0,138.077-111.923,250-250,250C111.93,500,0,388.077,0,250C0,111.93,111.93,0,250,0z"
   id="path1324" />
</g></g><g
     transform="translate(600,960) scale(0.08,0.08)"
     id="g1334"><g
       transform=""
       style="fill: rgb(0, 0, 0);"
       id="g1332">
<path
   d="M250,0c138.077,0,250,111.93,250,250c0,138.077-111.923,250-250,250C111.93,500,0,388.077,0,250C0,111.93,111.93,0,250,0z"
   id="path1330" />
</g></g><g
     transform="translate(720,960) scale(0.08,0.08)"
     id="g1340"><g
       transform=""
       style="fill: rgb(0, 0, 0);"
       id="g1338">
<path
   d="M250,0c138.077,0,250,111.93,250,250c0,138.077-111.923,250-250,250C111.93,500,0,388.077,0,250C0,111.93,111.93,0,250,0z"
   id="path1336" />
</g></g><g
     transform="translate(760,960) scale(0.08,0.08)"
     id="g1346"><g
       transform=""
       style="fill: rgb(0, 0, 0);"
       id="g1344">
<path
   d="M250,0c138.077,0,250,111.93,250,250c0,138.077-111.923,250-250,250C111.93,500,0,388.077,0,250C0,111.93,111.93,0,250,0z"
   id="path1342" />
</g></g><g
     transform="translate(800,960) scale(0.08,0.08)"
     id="g1352"><g
       transform=""
       style="fill: rgb(0, 0, 0);"
       id="g1350">
<path
   d="M250,0c138.077,0,250,111.93,250,250c0,138.077-111.923,250-250,250C111.93,500,0,388.077,0,250C0,111.93,111.93,0,250,0z"
   id="path1348" />
</g></g><g
     transform="translate(840,960) scale(0.08,0.08)"
     id="g1358"><g
       transform=""
       style="fill: rgb(0, 0, 0);"
       id="g1356">
<path
   d="M250,0c138.077,0,250,111.93,250,250c0,138.077-111.923,250-250,250C111.93,500,0,388.077,0,250C0,111.93,111.93,0,250,0z"
   id="path1354" />
</g></g><g
     transform="translate(880,960) scale(0.08,0.08)"
     id="g1364"><g
       transform=""
       style="fill: rgb(0, 0, 0);"
       id="g1362">
<path
   d="M250,0c138.077,0,250,111.93,250,250c0,138.077-111.923,250-250,250C111.93,500,0,388.077,0,250C0,111.93,111.93,0,250,0z"
   id="path1360" />
</g></g><g
     transform="translate(920,960) scale(0.08,0.08)"
     id="g1370"><g
       transform=""
       style="fill: rgb(0, 0, 0);"
       id="g1368">
<path
   d="M250,0c138.077,0,250,111.93,250,250c0,138.077-111.923,250-250,250C111.93,500,0,388.077,0,250C0,111.93,111.93,0,250,0z"
   id="path1366" />
</g></g><g
     transform="translate(960,960) scale(0.08,0.08)"
     id="g1376"><g
       transform=""
       style="fill: rgb(0, 0, 0);"
       id="g1374">
<path
   d="M250,0c138.077,0,250,111.93,250,250c0,138.077-111.923,250-250,250C111.93,500,0,388.077,0,250C0,111.93,111.93,0,250,0z"
   id="path1372" />
</g></g><g
     transform="translate(0,0) scale(2.8, 2.8)"
     id="g1386"><g
       transform=""
       style="fill: rgb(0, 0, 0);"
       id="g1384">
<g
   id="g1382">
	<rect
   x="15"
   y="15"
   style="fill:none;"
   width="70"
   height="70"
   id="rect1378" />
	<path
   d="M85,0H15H0v15v70v15h15h70h15V85V15V0H85z M85,85H15V15h70V85z"
   id="path1380" />
</g>
</g></g><g
     transform="translate(720,0) scale(2.8, 2.8)"
     id="g1396"><g
       transform=""
       style="fill: rgb(0, 0, 0);"
       id="g1394">
<g
   id="g1392">
	<rect
   x="15"
   y="15"
   style="fill:none;"
   width="70"
   height="70"
   id="rect1388" />
	<path
   d="M85,0H15H0v15v70v15h15h70h15V85V15V0H85z M85,85H15V15h70V85z"
   id="path1390" />
</g>
</g></g><g
     transform="translate(0,720) scale(2.8, 2.8)"
     id="g1406"><g
       transform=""
       style="fill: rgb(0, 0, 0);"
       id="g1404">
<g
   id="g1402">
	<rect
   x="15"
   y="15"
   style="fill:none;"
   width="70"
   height="70"
   id="rect1398" />
	<path
   d="M85,0H15H0v15v70v15h15h70h15V85V15V0H85z M85,85H15V15h70V85z"
   id="path1400" />
</g>
</g></g><g
     transform="translate(80,80) scale(1.2, 1.2)"
     id="g1412"><g
       transform=""
       style="fill: rgb(0, 0, 0);"
       id="g1410">
<rect
   width="100"
   height="100"
   id="rect1408" />
</g></g><g
     transform="translate(800,80) scale(1.2, 1.2)"
     id="g1418"><g
       transform=""
       style="fill: rgb(0, 0, 0);"
       id="g1416">
<rect
   width="100"
   height="100"
   id="rect1414" />
</g></g><g
     transform="translate(80,800) scale(1.2, 1.2)"
     id="g1424"><g
       transform=""
       style="fill: rgb(0, 0, 0);"
       id="g1422">
<rect
   width="100"
   height="100"
   id="rect1420" />
</g></g></g><text
   xml:space="preserve"
   style="font-size:318.008px;line-height:1.25;font-family:sans-serif;-inkscape-font-specification:sans-serif;fill:#ff0000;stroke-width:17.0361"
   x="365.27649"
   y="692.39215"
   id="text7816"><tspan
     sodipodi:role="line"
     id="tspan7814"
     x="365.27649"
     y="692.39215"
     style="fill:#ff0000;stroke-width:17.0361"></tspan></text></svg>
